<?xml version="1.0"?>
<svg width="57.999994628906265" height="57.999994628906265" xmlns="http://www.w3.org/2000/svg" xmlns:svg="http://www.w3.org/2000/svg">
 <g>
  <title>Layer 1</title>
  <circle r="29" cy="29.178" cx="29" fill="#ff9800" id="svg_1"/>
  <g id="svg_8"/>
  <g id="svg_9"/>
  <g id="svg_10"/>
  <g id="svg_11"/>
  <g id="svg_12"/>
  <g id="svg_13"/>
  <g id="svg_14"/>
  <g id="svg_15"/>
  <g id="svg_16"/>
  <g id="svg_17"/>
  <g id="svg_18"/>
  <g id="svg_19"/>
  <g id="svg_20"/>
  <g id="svg_21"/>
  <g id="svg_22"/>
  <g transform="rotate(-180 29.411 29)" id="svg_23">
   <g id="svg_2">
    <polygon points="36,29 14,44 14,29.273 14,14" fill="#ffffff" id="svg_3"/>
    <path d="m14.000021,45c-0.160001,0 -0.321,-0.037998 -0.467,-0.116001c-0.328,-0.173 -0.533,-0.513 -0.533,-0.883999l0,-30c0,-0.371 0.205,-0.711 0.533,-0.884c0.327,-0.174 0.724,-0.150001 1.030999,0.058l22.000002,15c0.271999,0.186001 0.436001,0.495001 0.436001,0.826s-0.164001,0.639999 -0.437,0.826l-22.000002,15c-0.169001,0.115002 -0.366,0.174 -0.563,0.174zm1,-29.107l0,26.215002l19.225,-13.108002l-19.225,-13.107z" fill="#ffffff" id="svg_4"/>
   </g>
   <g id="svg_5">
    <rect height="30" width="5" y="14" x="39.822" fill="#ffffff" id="svg_6"/>
    <path d="m45.822021,45l-7,0l0,-32l7,0l0,32zm-5,-2l3,0l0,-28l-3,0l0,28z" fill="#ffffff" id="svg_7"/>
   </g>
  </g>
 </g>
</svg>